<svg width="600" height="400" viewBox="0 0 600 400" fill="none" xmlns="http://www.w3.org/2000/svg">
  <!-- Background gradient -->
  <rect width="600" height="400" rx="20" fill="url(#paint0_linear)" />
  
  <!-- Financial chart -->
  <path d="M100 300 L150 250 L200 270 L250 200 L300 220 L350 180 L400 150 L450 170 L500 120" stroke="#6366F1" stroke-width="4" stroke-linecap="round" stroke-linejoin="round" />
  
  <!-- Financial icons -->
  <circle cx="150" cy="100" r="30" fill="#10B981" opacity="0.8" />
  <path d="M140 100 L150 90 L160 100 L150 110 Z" fill="white" />
  <path d="M150 95 L150 105" stroke="white" stroke-width="2" />
  
  <circle cx="450" cy="80" r="25" fill="#6366F1" opacity="0.8" />
  <path d="M440 80 L450 70 L460 80" stroke="white" stroke-width="2" stroke-linecap="round" stroke-linejoin="round" />
  <path d="M450 70 L450 90" stroke="white" stroke-width="2" />
  
  <circle cx="350" cy="250" r="35" fill="#F59E0B" opacity="0.8" />
  <path d="M340 250 L350 240 L360 250" stroke="white" stroke-width="2" stroke-linecap="round" stroke-linejoin="round" />
  <path d="M350 240 L350 260" stroke="white" stroke-width="2" />
  <path d="M345 245 L355 245" stroke="white" stroke-width="2" />
  
  <!-- Decorative elements -->
  <circle cx="100" cy="200" r="10" fill="#6366F1" opacity="0.5" />
  <circle cx="500" cy="300" r="15" fill="#10B981" opacity="0.5" />
  <circle cx="250" cy="150" r="12" fill="#F59E0B" opacity="0.5" />
  <circle cx="400" cy="100" r="8" fill="#6366F1" opacity="0.5" />
  <circle cx="300" cy="350" r="20" fill="#10B981" opacity="0.5" />
  
  <!-- Gradient definitions -->
  <defs>
    <linearGradient id="paint0_linear" x1="0" y1="0" x2="600" y2="400" gradientUnits="userSpaceOnUse">
      <stop offset="0" stop-color="#F8FAFC" />
      <stop offset="1" stop-color="#F1F5F9" />
    </linearGradient>
  </defs>
</svg>