
<svg xmlns="http://www.w3.org/2000/svg" xmlns:xlink="http://www.w3.org/1999/xlink" width="634" zoomAndPan="magnify" viewBox="0 0 475.5 145.500001" height="194" preserveAspectRatio="xMidYMid meet" version="1.0"><defs><g/><clipPath id="e8014a99f9"><path d="M 67.140625 98.382812 L 81.34375 98.382812 L 81.34375 112.585938 L 67.140625 112.585938 Z M 67.140625 98.382812 " clip-rule="nonzero"/></clipPath><clipPath id="eef02387d1"><path d="M 74.328125 98.382812 C 70.359375 98.382812 67.140625 101.601562 67.140625 105.570312 C 67.140625 109.539062 70.359375 112.757812 74.328125 112.757812 C 78.300781 112.757812 81.519531 109.539062 81.519531 105.570312 C 81.519531 101.601562 78.300781 98.382812 74.328125 98.382812 Z M 74.328125 98.382812 " clip-rule="nonzero"/></clipPath><clipPath id="2a9c06e42c"><path d="M 74.1875 59.84375 L 99.601562 59.84375 L 99.601562 85.253906 L 74.1875 85.253906 Z M 74.1875 59.84375 " clip-rule="nonzero"/></clipPath><clipPath id="b456ecbfa1"><path d="M 92.222656 59.84375 L 99.695312 67.3125 L 99.695312 77.875 L 92.222656 85.347656 L 81.660156 85.347656 L 74.1875 77.875 L 74.1875 67.3125 L 81.660156 59.84375 Z M 92.222656 59.84375 " clip-rule="nonzero"/></clipPath><clipPath id="ba97e27ea2"><path d="M 31.40625 45.554688 L 50.792969 45.554688 L 50.792969 64.941406 L 31.40625 64.941406 Z M 31.40625 45.554688 " clip-rule="nonzero"/></clipPath><clipPath id="5aafb448ff"><path d="M 41.101562 45.554688 C 35.746094 45.554688 31.40625 49.894531 31.40625 55.246094 C 31.40625 60.601562 35.746094 64.941406 41.101562 64.941406 C 46.453125 64.941406 50.792969 60.601562 50.792969 55.246094 C 50.792969 49.894531 46.453125 45.554688 41.101562 45.554688 Z M 41.101562 45.554688 " clip-rule="nonzero"/></clipPath><clipPath id="420f69f9fa"><path d="M 44.449219 77.527344 L 63.835938 77.527344 L 63.835938 96.914062 L 44.449219 96.914062 Z M 44.449219 77.527344 " clip-rule="nonzero"/></clipPath><clipPath id="21bca3e785"><path d="M 54.144531 77.527344 C 48.789062 77.527344 44.449219 81.867188 44.449219 87.222656 C 44.449219 92.574219 48.789062 96.914062 54.144531 96.914062 C 59.496094 96.914062 63.835938 92.574219 63.835938 87.222656 C 63.835938 81.867188 59.496094 77.527344 54.144531 77.527344 Z M 54.144531 77.527344 " clip-rule="nonzero"/></clipPath><clipPath id="b1acbfc1c7"><path d="M 114.550781 77.527344 L 133.9375 77.527344 L 133.9375 96.914062 L 114.550781 96.914062 Z M 114.550781 77.527344 " clip-rule="nonzero"/></clipPath><clipPath id="d090aa90e7"><path d="M 124.246094 77.527344 C 118.890625 77.527344 114.550781 81.867188 114.550781 87.222656 C 114.550781 92.574219 118.890625 96.914062 124.246094 96.914062 C 129.597656 96.914062 133.9375 92.574219 133.9375 87.222656 C 133.9375 81.867188 129.597656 77.527344 124.246094 77.527344 Z M 124.246094 77.527344 " clip-rule="nonzero"/></clipPath><clipPath id="3313ad36bc"><path d="M 91.164062 32.230469 L 104.480469 32.230469 L 104.480469 45.542969 L 91.164062 45.542969 Z M 91.164062 32.230469 " clip-rule="nonzero"/></clipPath><clipPath id="e35cf4b537"><path d="M 97.820312 32.230469 C 94.144531 32.230469 91.164062 35.210938 91.164062 38.886719 C 91.164062 42.5625 94.144531 45.542969 97.820312 45.542969 C 101.5 45.542969 104.480469 42.5625 104.480469 38.886719 C 104.480469 35.210938 101.5 32.230469 97.820312 32.230469 Z M 97.820312 32.230469 " clip-rule="nonzero"/></clipPath><clipPath id="3ffb57681e"><path d="M 81.980469 67.632812 L 91.695312 67.632812 L 91.695312 77.347656 L 81.980469 77.347656 Z M 81.980469 67.632812 " clip-rule="nonzero"/></clipPath><clipPath id="87777cce62"><path d="M 86.941406 67.632812 C 84.203125 67.632812 81.980469 69.855469 81.980469 72.597656 C 81.980469 75.335938 84.203125 77.558594 86.941406 77.558594 C 89.683594 77.558594 91.90625 75.335938 91.90625 72.597656 C 91.90625 69.855469 89.683594 67.632812 86.941406 67.632812 Z M 86.941406 67.632812 " clip-rule="nonzero"/></clipPath></defs><g fill="#ffffff" fill-opacity="1"><g transform="translate(158.344305, 86.691878)"><g><path d="M 37.34375 -18.640625 C 37.34375 -15.773438 36.976562 -13.164062 36.25 -10.8125 C 35.519531 -8.46875 34.4375 -6.453125 33 -4.765625 C 31.570312 -3.078125 29.796875 -1.773438 27.671875 -0.859375 C 25.554688 0.0546875 23.097656 0.515625 20.296875 0.515625 C 17.410156 0.515625 14.894531 0.0546875 12.75 -0.859375 C 10.601562 -1.773438 8.820312 -3.082031 7.40625 -4.78125 C 6 -6.476562 4.941406 -8.503906 4.234375 -10.859375 C 3.523438 -13.210938 3.171875 -15.828125 3.171875 -18.703125 C 3.171875 -22.492188 3.796875 -25.820312 5.046875 -28.6875 C 6.304688 -31.550781 8.210938 -33.78125 10.765625 -35.375 C 13.316406 -36.96875 16.519531 -37.765625 20.375 -37.765625 C 24.050781 -37.765625 27.148438 -36.976562 29.671875 -35.40625 C 32.191406 -33.832031 34.097656 -31.613281 35.390625 -28.75 C 36.691406 -25.894531 37.34375 -22.523438 37.34375 -18.640625 Z M 7.734375 -18.640625 C 7.734375 -15.484375 8.179688 -12.753906 9.078125 -10.453125 C 9.972656 -8.148438 11.347656 -6.367188 13.203125 -5.109375 C 15.066406 -3.859375 17.429688 -3.234375 20.296875 -3.234375 C 23.179688 -3.234375 25.539062 -3.859375 27.375 -5.109375 C 29.21875 -6.367188 30.578125 -8.148438 31.453125 -10.453125 C 32.335938 -12.753906 32.78125 -15.484375 32.78125 -18.640625 C 32.78125 -23.441406 31.773438 -27.191406 29.765625 -29.890625 C 27.765625 -32.597656 24.632812 -33.953125 20.375 -33.953125 C 17.488281 -33.953125 15.113281 -33.332031 13.25 -32.09375 C 11.382812 -30.863281 10 -29.109375 9.09375 -26.828125 C 8.1875 -24.546875 7.734375 -21.816406 7.734375 -18.640625 Z M 7.734375 -18.640625 "/></g></g></g><g fill="#ffffff" fill-opacity="1"><g transform="translate(198.858955, 86.691878)"><g><path d="M 17.546875 -28.390625 C 21.023438 -28.390625 23.796875 -27.191406 25.859375 -24.796875 C 27.929688 -22.410156 28.96875 -18.816406 28.96875 -14.015625 C 28.96875 -10.847656 28.492188 -8.1875 27.546875 -6.03125 C 26.597656 -3.875 25.257812 -2.242188 23.53125 -1.140625 C 21.8125 -0.0351562 19.785156 0.515625 17.453125 0.515625 C 15.972656 0.515625 14.671875 0.320312 13.546875 -0.0625 C 12.429688 -0.457031 11.472656 -0.984375 10.671875 -1.640625 C 9.878906 -2.304688 9.222656 -3.03125 8.703125 -3.8125 L 8.390625 -3.8125 C 8.441406 -3.15625 8.503906 -2.359375 8.578125 -1.421875 C 8.660156 -0.492188 8.703125 0.316406 8.703125 1.015625 L 8.703125 12.46875 L 4.453125 12.46875 L 4.453125 -27.875 L 7.9375 -27.875 L 8.5 -23.75 L 8.703125 -23.75 C 9.242188 -24.601562 9.90625 -25.378906 10.6875 -26.078125 C 11.46875 -26.785156 12.421875 -27.347656 13.546875 -27.765625 C 14.671875 -28.179688 16.003906 -28.390625 17.546875 -28.390625 Z M 16.8125 -24.828125 C 14.875 -24.828125 13.316406 -24.453125 12.140625 -23.703125 C 10.960938 -22.960938 10.101562 -21.847656 9.5625 -20.359375 C 9.019531 -18.878906 8.734375 -17.019531 8.703125 -14.78125 L 8.703125 -13.96875 C 8.703125 -11.601562 8.957031 -9.609375 9.46875 -7.984375 C 9.988281 -6.359375 10.847656 -5.117188 12.046875 -4.265625 C 13.242188 -3.421875 14.847656 -3 16.859375 -3 C 18.585938 -3 20.03125 -3.460938 21.1875 -4.390625 C 22.34375 -5.328125 23.203125 -6.628906 23.765625 -8.296875 C 24.335938 -9.972656 24.625 -11.894531 24.625 -14.0625 C 24.625 -17.351562 23.984375 -19.96875 22.703125 -21.90625 C 21.421875 -23.851562 19.457031 -24.828125 16.8125 -24.828125 Z M 16.8125 -24.828125 "/></g></g></g><g fill="#ffffff" fill-opacity="1"><g transform="translate(230.726411, 86.691878)"><g><path d="M 15.1875 -28.390625 C 17.5625 -28.390625 19.59375 -27.863281 21.28125 -26.8125 C 22.976562 -25.757812 24.273438 -24.285156 25.171875 -22.390625 C 26.078125 -20.503906 26.53125 -18.296875 26.53125 -15.765625 L 26.53125 -13.15625 L 7.28125 -13.15625 C 7.320312 -9.875 8.128906 -7.378906 9.703125 -5.671875 C 11.285156 -3.960938 13.507812 -3.109375 16.375 -3.109375 C 18.144531 -3.109375 19.707031 -3.265625 21.0625 -3.578125 C 22.414062 -3.898438 23.820312 -4.378906 25.28125 -5.015625 L 25.28125 -1.296875 C 23.875 -0.671875 22.476562 -0.210938 21.09375 0.078125 C 19.71875 0.367188 18.085938 0.515625 16.203125 0.515625 C 13.523438 0.515625 11.1875 -0.03125 9.1875 -1.125 C 7.195312 -2.21875 5.648438 -3.820312 4.546875 -5.9375 C 3.453125 -8.0625 2.90625 -10.660156 2.90625 -13.734375 C 2.90625 -16.734375 3.40625 -19.332031 4.40625 -21.53125 C 5.414062 -23.726562 6.84375 -25.421875 8.6875 -26.609375 C 10.53125 -27.796875 12.695312 -28.390625 15.1875 -28.390625 Z M 15.140625 -24.921875 C 12.878906 -24.921875 11.078125 -24.179688 9.734375 -22.703125 C 8.398438 -21.234375 7.601562 -19.175781 7.34375 -16.53125 L 22.109375 -16.53125 C 22.085938 -18.195312 21.828125 -19.660156 21.328125 -20.921875 C 20.828125 -22.179688 20.066406 -23.160156 19.046875 -23.859375 C 18.035156 -24.566406 16.734375 -24.921875 15.140625 -24.921875 Z M 15.140625 -24.921875 "/></g></g></g><g fill="#ffffff" fill-opacity="1"><g transform="translate(259.974275, 86.691878)"><g><path d="M 17.65625 -28.390625 C 20.957031 -28.390625 23.457031 -27.578125 25.15625 -25.953125 C 26.851562 -24.335938 27.703125 -21.738281 27.703125 -18.15625 L 27.703125 0 L 23.53125 0 L 23.53125 -17.875 C 23.53125 -20.195312 23 -21.9375 21.9375 -23.09375 C 20.875 -24.25 19.25 -24.828125 17.0625 -24.828125 C 13.976562 -24.828125 11.804688 -23.953125 10.546875 -22.203125 C 9.296875 -20.460938 8.671875 -17.925781 8.671875 -14.59375 L 8.671875 0 L 4.453125 0 L 4.453125 -27.875 L 7.859375 -27.875 L 8.5 -23.859375 L 8.71875 -23.859375 C 9.3125 -24.835938 10.066406 -25.660156 10.984375 -26.328125 C 11.898438 -27.003906 12.925781 -27.515625 14.0625 -27.859375 C 15.195312 -28.210938 16.394531 -28.390625 17.65625 -28.390625 Z M 17.65625 -28.390625 "/></g></g></g><g fill="#ffffff" fill-opacity="1"><g transform="translate(291.91803, 86.691878)"><g><path d="M 26.078125 -9.890625 C 26.078125 -7.691406 25.53125 -5.816406 24.4375 -4.265625 C 23.34375 -2.710938 21.8125 -1.523438 19.84375 -0.703125 C 17.875 0.109375 15.554688 0.515625 12.890625 0.515625 C 11.484375 0.515625 10.148438 0.445312 8.890625 0.3125 C 7.640625 0.175781 6.488281 -0.015625 5.4375 -0.265625 C 4.382812 -0.523438 3.460938 -0.84375 2.671875 -1.21875 L 2.671875 -5.359375 C 3.941406 -4.835938 5.492188 -4.351562 7.328125 -3.90625 C 9.160156 -3.457031 11.078125 -3.234375 13.078125 -3.234375 C 14.941406 -3.234375 16.515625 -3.484375 17.796875 -3.984375 C 19.085938 -4.484375 20.066406 -5.203125 20.734375 -6.140625 C 21.410156 -7.078125 21.75 -8.207031 21.75 -9.53125 C 21.75 -10.8125 21.46875 -11.878906 20.90625 -12.734375 C 20.34375 -13.585938 19.410156 -14.363281 18.109375 -15.0625 C 16.816406 -15.769531 15.050781 -16.523438 12.8125 -17.328125 C 11.238281 -17.878906 9.847656 -18.488281 8.640625 -19.15625 C 7.441406 -19.832031 6.4375 -20.59375 5.625 -21.4375 C 4.8125 -22.289062 4.195312 -23.273438 3.78125 -24.390625 C 3.363281 -25.515625 3.15625 -26.796875 3.15625 -28.234375 C 3.15625 -30.210938 3.660156 -31.910156 4.671875 -33.328125 C 5.679688 -34.742188 7.078125 -35.828125 8.859375 -36.578125 C 10.648438 -37.335938 12.707031 -37.71875 15.03125 -37.71875 C 17.019531 -37.71875 18.859375 -37.53125 20.546875 -37.15625 C 22.234375 -36.789062 23.78125 -36.289062 25.1875 -35.65625 L 23.828125 -31.953125 C 22.492188 -32.503906 21.078125 -32.96875 19.578125 -33.34375 C 18.078125 -33.71875 16.53125 -33.90625 14.9375 -33.90625 C 13.34375 -33.90625 12 -33.671875 10.90625 -33.203125 C 9.8125 -32.734375 8.972656 -32.078125 8.390625 -31.234375 C 7.816406 -30.390625 7.53125 -29.378906 7.53125 -28.203125 C 7.53125 -26.898438 7.804688 -25.816406 8.359375 -24.953125 C 8.910156 -24.085938 9.789062 -23.316406 11 -22.640625 C 12.207031 -21.972656 13.816406 -21.273438 15.828125 -20.546875 C 18.015625 -19.753906 19.867188 -18.910156 21.390625 -18.015625 C 22.921875 -17.128906 24.082031 -16.046875 24.875 -14.765625 C 25.675781 -13.484375 26.078125 -11.859375 26.078125 -9.890625 Z M 26.078125 -9.890625 "/></g></g></g><g fill="#ffffff" fill-opacity="1"><g transform="translate(320.479205, 86.691878)"><g><path d="M 15.625 0.515625 C 13.113281 0.515625 10.898438 0 8.984375 -1.03125 C 7.066406 -2.070312 5.570312 -3.648438 4.5 -5.765625 C 3.4375 -7.890625 2.90625 -10.5625 2.90625 -13.78125 C 2.90625 -17.15625 3.46875 -19.914062 4.59375 -22.0625 C 5.71875 -24.207031 7.269531 -25.796875 9.25 -26.828125 C 11.238281 -27.867188 13.5 -28.390625 16.03125 -28.390625 C 17.414062 -28.390625 18.753906 -28.25 20.046875 -27.96875 C 21.347656 -27.6875 22.414062 -27.332031 23.25 -26.90625 L 21.984375 -23.375 C 21.128906 -23.71875 20.144531 -24.023438 19.03125 -24.296875 C 17.925781 -24.566406 16.890625 -24.703125 15.921875 -24.703125 C 13.992188 -24.703125 12.390625 -24.285156 11.109375 -23.453125 C 9.828125 -22.617188 8.867188 -21.394531 8.234375 -19.78125 C 7.597656 -18.175781 7.28125 -16.195312 7.28125 -13.84375 C 7.28125 -11.582031 7.585938 -9.65625 8.203125 -8.0625 C 8.816406 -6.46875 9.738281 -5.25 10.96875 -4.40625 C 12.195312 -3.570312 13.738281 -3.15625 15.59375 -3.15625 C 17.070312 -3.15625 18.398438 -3.3125 19.578125 -3.625 C 20.765625 -3.9375 21.84375 -4.304688 22.8125 -4.734375 L 22.8125 -0.96875 C 21.882812 -0.488281 20.847656 -0.125 19.703125 0.125 C 18.554688 0.382812 17.195312 0.515625 15.625 0.515625 Z M 15.625 0.515625 "/></g></g></g><g fill="#ffffff" fill-opacity="1"><g transform="translate(345.428905, 86.691878)"><g><path d="M 28.484375 -13.984375 C 28.484375 -11.703125 28.1875 -9.660156 27.59375 -7.859375 C 27 -6.054688 26.140625 -4.535156 25.015625 -3.296875 C 23.898438 -2.066406 22.550781 -1.125 20.96875 -0.46875 C 19.382812 0.1875 17.59375 0.515625 15.59375 0.515625 C 13.726562 0.515625 12.019531 0.1875 10.46875 -0.46875 C 8.914062 -1.125 7.570312 -2.066406 6.4375 -3.296875 C 5.3125 -4.535156 4.441406 -6.054688 3.828125 -7.859375 C 3.210938 -9.660156 2.90625 -11.703125 2.90625 -13.984375 C 2.90625 -17.035156 3.421875 -19.632812 4.453125 -21.78125 C 5.484375 -23.925781 6.960938 -25.5625 8.890625 -26.6875 C 10.816406 -27.820312 13.109375 -28.390625 15.765625 -28.390625 C 18.316406 -28.390625 20.546875 -27.820312 22.453125 -26.6875 C 24.359375 -25.550781 25.835938 -23.910156 26.890625 -21.765625 C 27.953125 -19.617188 28.484375 -17.023438 28.484375 -13.984375 Z M 7.28125 -13.984375 C 7.28125 -11.742188 7.578125 -9.800781 8.171875 -8.15625 C 8.765625 -6.519531 9.675781 -5.25 10.90625 -4.34375 C 12.144531 -3.445312 13.738281 -3 15.6875 -3 C 17.625 -3 19.210938 -3.445312 20.453125 -4.34375 C 21.703125 -5.25 22.625 -6.519531 23.21875 -8.15625 C 23.8125 -9.800781 24.109375 -11.742188 24.109375 -13.984375 C 24.109375 -16.210938 23.8125 -18.132812 23.21875 -19.75 C 22.625 -21.375 21.707031 -22.625 20.46875 -23.5 C 19.238281 -24.382812 17.640625 -24.828125 15.671875 -24.828125 C 12.765625 -24.828125 10.640625 -23.867188 9.296875 -21.953125 C 7.953125 -20.035156 7.28125 -17.378906 7.28125 -13.984375 Z M 7.28125 -13.984375 "/></g></g></g><g fill="#ffffff" fill-opacity="1"><g transform="translate(376.762269, 86.691878)"><g><path d="M 17.546875 -28.390625 C 21.023438 -28.390625 23.796875 -27.191406 25.859375 -24.796875 C 27.929688 -22.410156 28.96875 -18.816406 28.96875 -14.015625 C 28.96875 -10.847656 28.492188 -8.1875 27.546875 -6.03125 C 26.597656 -3.875 25.257812 -2.242188 23.53125 -1.140625 C 21.8125 -0.0351562 19.785156 0.515625 17.453125 0.515625 C 15.972656 0.515625 14.671875 0.320312 13.546875 -0.0625 C 12.429688 -0.457031 11.472656 -0.984375 10.671875 -1.640625 C 9.878906 -2.304688 9.222656 -3.03125 8.703125 -3.8125 L 8.390625 -3.8125 C 8.441406 -3.15625 8.503906 -2.359375 8.578125 -1.421875 C 8.660156 -0.492188 8.703125 0.316406 8.703125 1.015625 L 8.703125 12.46875 L 4.453125 12.46875 L 4.453125 -27.875 L 7.9375 -27.875 L 8.5 -23.75 L 8.703125 -23.75 C 9.242188 -24.601562 9.90625 -25.378906 10.6875 -26.078125 C 11.46875 -26.785156 12.421875 -27.347656 13.546875 -27.765625 C 14.671875 -28.179688 16.003906 -28.390625 17.546875 -28.390625 Z M 16.8125 -24.828125 C 14.875 -24.828125 13.316406 -24.453125 12.140625 -23.703125 C 10.960938 -22.960938 10.101562 -21.847656 9.5625 -20.359375 C 9.019531 -18.878906 8.734375 -17.019531 8.703125 -14.78125 L 8.703125 -13.96875 C 8.703125 -11.601562 8.957031 -9.609375 9.46875 -7.984375 C 9.988281 -6.359375 10.847656 -5.117188 12.046875 -4.265625 C 13.242188 -3.421875 14.847656 -3 16.859375 -3 C 18.585938 -3 20.03125 -3.460938 21.1875 -4.390625 C 22.34375 -5.328125 23.203125 -6.628906 23.765625 -8.296875 C 24.335938 -9.972656 24.625 -11.894531 24.625 -14.0625 C 24.625 -17.351562 23.984375 -19.96875 22.703125 -21.90625 C 21.421875 -23.851562 19.457031 -24.828125 16.8125 -24.828125 Z M 16.8125 -24.828125 "/></g></g></g><g fill="#ffffff" fill-opacity="1"><g transform="translate(408.629725, 86.691878)"><g><path d="M 15.1875 -28.390625 C 17.5625 -28.390625 19.59375 -27.863281 21.28125 -26.8125 C 22.976562 -25.757812 24.273438 -24.285156 25.171875 -22.390625 C 26.078125 -20.503906 26.53125 -18.296875 26.53125 -15.765625 L 26.53125 -13.15625 L 7.28125 -13.15625 C 7.320312 -9.875 8.128906 -7.378906 9.703125 -5.671875 C 11.285156 -3.960938 13.507812 -3.109375 16.375 -3.109375 C 18.144531 -3.109375 19.707031 -3.265625 21.0625 -3.578125 C 22.414062 -3.898438 23.820312 -4.378906 25.28125 -5.015625 L 25.28125 -1.296875 C 23.875 -0.671875 22.476562 -0.210938 21.09375 0.078125 C 19.71875 0.367188 18.085938 0.515625 16.203125 0.515625 C 13.523438 0.515625 11.1875 -0.03125 9.1875 -1.125 C 7.195312 -2.21875 5.648438 -3.820312 4.546875 -5.9375 C 3.453125 -8.0625 2.90625 -10.660156 2.90625 -13.734375 C 2.90625 -16.734375 3.40625 -19.332031 4.40625 -21.53125 C 5.414062 -23.726562 6.84375 -25.421875 8.6875 -26.609375 C 10.53125 -27.796875 12.695312 -28.390625 15.1875 -28.390625 Z M 15.140625 -24.921875 C 12.878906 -24.921875 11.078125 -24.179688 9.734375 -22.703125 C 8.398438 -21.234375 7.601562 -19.175781 7.34375 -16.53125 L 22.109375 -16.53125 C 22.085938 -18.195312 21.828125 -19.660156 21.328125 -20.921875 C 20.828125 -22.179688 20.066406 -23.160156 19.046875 -23.859375 C 18.035156 -24.566406 16.734375 -24.921875 15.140625 -24.921875 Z M 15.140625 -24.921875 "/></g></g></g><path stroke-linecap="butt" transform="matrix(0.718599, 0.205596, -0.205596, 0.718599, 49.232842, 58.005899)" fill="none" stroke-linejoin="miter" d="M -0.00234337 1.998318 L 39.740109 1.999692 " stroke="#0081fb" stroke-width="4" stroke-opacity="1" stroke-miterlimit="4"/><path stroke-linecap="butt" transform="matrix(0.668544, -0.334219, 0.334219, 0.668544, 61.277157, 82.319532)" fill="none" stroke-linejoin="miter" d="M -0.000115634 1.999388 L 22.657108 2.002619 " stroke="#0081fb" stroke-width="4" stroke-opacity="1" stroke-miterlimit="4"/><path stroke-linecap="butt" transform="matrix(0.262604, -0.699781, 0.699781, 0.262604, 88.028813, 61.51877)" fill="none" stroke-linejoin="miter" d="M 0.00188067 2.001171 L 27.772953 2.001432 " stroke="#0081fb" stroke-width="4" stroke-opacity="1" stroke-miterlimit="4"/><path stroke-linecap="butt" transform="matrix(0.725294, 0.180561, -0.180561, 0.725294, 97.083623, 74.634468)" fill="none" stroke-linejoin="miter" d="M 0.000485556 2.001094 L 31.178365 2.000269 " stroke="#0081fb" stroke-width="4" stroke-opacity="1" stroke-miterlimit="4"/><path stroke-linecap="butt" transform="matrix(0.231952, -0.71053, 0.71053, 0.231952, 75.67018, 101.347647)" fill="none" stroke-linejoin="miter" d="M -0.00178708 1.998619 L 28.289322 1.999088 " stroke="#0081fb" stroke-width="4" stroke-opacity="1" stroke-miterlimit="4"/><g clip-path="url(#e8014a99f9)"><g clip-path="url(#eef02387d1)"><path stroke-linecap="butt" transform="matrix(0.747431, 0, 0, 0.747431, 67.141614, 98.382827)" fill="none" stroke-linejoin="miter" d="M 9.614943 -0.0000196365 C 4.305092 -0.0000196365 -0.00132323 4.306395 -0.00132323 9.616246 C -0.00132323 14.926098 4.305092 19.232513 9.614943 19.232513 C 14.93002 19.232513 19.236435 14.926098 19.236435 9.616246 C 19.236435 4.306395 14.93002 -0.0000196365 9.614943 -0.0000196365 Z M 9.614943 -0.0000196365 " stroke="#0081fb" stroke-width="10" stroke-opacity="1" stroke-miterlimit="4"/></g></g><g clip-path="url(#2a9c06e42c)"><g clip-path="url(#b456ecbfa1)"><path stroke-linecap="butt" transform="matrix(0.747431, 0, 0, 0.747431, 74.188929, 59.841938)" fill="none" stroke-linejoin="miter" d="M 24.127599 0.00242437 L 34.12538 9.994979 L 34.12538 24.126709 L 24.127599 34.12449 L 9.995869 34.12449 L -0.00191186 24.126709 L -0.00191186 9.994979 L 9.995869 0.00242437 Z M 24.127599 0.00242437 " stroke="#0081fb" stroke-width="10" stroke-opacity="1" stroke-miterlimit="4"/></g></g><g clip-path="url(#ba97e27ea2)"><g clip-path="url(#5aafb448ff)"><path stroke-linecap="butt" transform="matrix(0.747431, 0, 0, 0.747431, 31.407181, 45.553275)" fill="none" stroke-linejoin="miter" d="M 12.970261 0.00189005 C 5.805097 0.00189005 -0.00124622 5.808233 -0.00124622 12.968171 C -0.00124622 20.133334 5.805097 25.939677 12.970261 25.939677 C 20.130198 25.939677 25.936541 20.133334 25.936541 12.968171 C 25.936541 5.808233 20.130198 0.00189005 12.970261 0.00189005 Z M 12.970261 0.00189005 " stroke="#0081fb" stroke-width="10" stroke-opacity="1" stroke-miterlimit="4"/></g></g><g clip-path="url(#420f69f9fa)"><g clip-path="url(#21bca3e785)"><path stroke-linecap="butt" transform="matrix(0.747431, 0, 0, 0.747431, 44.450809, 77.529166)" fill="none" stroke-linejoin="miter" d="M 12.969379 -0.00243805 C 5.804215 -0.00243805 -0.00212809 5.803905 -0.00212809 12.969069 C -0.00212809 20.129006 5.804215 25.935349 12.969379 25.935349 C 20.129316 25.935349 25.935659 20.129006 25.935659 12.969069 C 25.935659 5.803905 20.129316 -0.00243805 12.969379 -0.00243805 Z M 12.969379 -0.00243805 " stroke="#0081fb" stroke-width="10" stroke-opacity="1" stroke-miterlimit="4"/></g></g><g clip-path="url(#b1acbfc1c7)"><g clip-path="url(#d090aa90e7)"><path stroke-linecap="butt" transform="matrix(0.747431, 0, 0, 0.747431, 114.55109, 77.529166)" fill="none" stroke-linejoin="miter" d="M 12.971094 -0.00243805 C 5.80593 -0.00243805 -0.000412917 5.803905 -0.000412917 12.969069 C -0.000412917 20.129006 5.80593 25.935349 12.971094 25.935349 C 20.131031 25.935349 25.937374 20.129006 25.937374 12.969069 C 25.937374 5.803905 20.131031 -0.00243805 12.971094 -0.00243805 Z M 12.971094 -0.00243805 " stroke="#0081fb" stroke-width="10" stroke-opacity="1" stroke-miterlimit="4"/></g></g><g clip-path="url(#3313ad36bc)"><g clip-path="url(#e35cf4b537)"><path stroke-linecap="butt" transform="matrix(0.747431, 0, 0, 0.747431, 91.16531, 32.231174)" fill="none" stroke-linejoin="miter" d="M 8.903829 -0.000943002 C 3.985945 -0.000943002 -0.0016694 3.986672 -0.0016694 8.904556 C -0.0016694 13.82244 3.985945 17.810054 8.903829 17.810054 C 13.826939 17.810054 17.814554 13.82244 17.814554 8.904556 C 17.814554 3.986672 13.826939 -0.000943002 8.903829 -0.000943002 Z M 8.903829 -0.000943002 " stroke="#0081fb" stroke-width="10" stroke-opacity="1" stroke-miterlimit="4"/></g></g><g clip-path="url(#3ffb57681e)"><g clip-path="url(#87777cce62)"><path stroke-linecap="butt" transform="matrix(0.747431, 0, 0, 0.747431, 81.979363, 67.632372)" fill="none" stroke-linejoin="miter" d="M 6.638794 0.000589348 C 2.975205 0.000589348 0.00147935 2.974315 0.00147935 6.64313 C 0.00147935 10.306719 2.975205 13.280445 6.638794 13.280445 C 10.307609 13.280445 13.281335 10.306719 13.281335 6.64313 C 13.281335 2.974315 10.307609 0.000589348 6.638794 0.000589348 Z M 6.638794 0.000589348 " stroke="#0081fb" stroke-width="30" stroke-opacity="1" stroke-miterlimit="4"/></g></g></svg>